<?xml version="1.0" encoding="UTF-8" standalone="no"?>
<!-- Created with Inkscape (http://www.inkscape.org/) -->

<svg
   xmlns:dc="http://purl.org/dc/elements/1.1/"
   xmlns:cc="http://creativecommons.org/ns#"
   xmlns:rdf="http://www.w3.org/1999/02/22-rdf-syntax-ns#"
   xmlns:svg="http://www.w3.org/2000/svg"
   xmlns="http://www.w3.org/2000/svg"
   xmlns:xlink="http://www.w3.org/1999/xlink"
   xmlns:sodipodi="http://sodipodi.sourceforge.net/DTD/sodipodi-0.dtd"
   xmlns:inkscape="http://www.inkscape.org/namespaces/inkscape"
   width="210mm"
   height="297mm"
   id="svg5309"
   version="1.1"
   inkscape:version="0.48.1 "
   sodipodi:docname="urano.svg">
  <defs
     id="defs5311">
    <pattern
       inkscape:collect="always"
       xlink:href="#Strips1_1"
       id="pattern5244"
       patternTransform="scale(10,10)" />
    <linearGradient
       id="linearGradient5234">
      <stop
         style="stop-color:#000000;stop-opacity:1;"
         offset="0"
         id="stop5236" />
      <stop
         style="stop-color:#000080;stop-opacity:0;"
         offset="1"
         id="stop5238" />
    </linearGradient>
    <pattern
       inkscape:stockid="Stripes 1:1"
       id="Strips1_1"
       patternTransform="translate(0,0) scale(10,10)"
       height="1"
       width="2"
       patternUnits="userSpaceOnUse"
       inkscape:collect="always">
      <rect
         id="rect4515"
         height="2"
         width="1"
         y="-0.5"
         x="0"
         style="fill:black;stroke:none" />
    </pattern>
    <linearGradient
       id="linearGradient5845">
      <stop
         style="stop-color:#c3c3ff;stop-opacity:0.09803922;"
         offset="0"
         id="stop5847" />
      <stop
         id="stop5855"
         offset="0.25"
         style="stop-color:#c3c3ff;stop-opacity:0.19607843;" />
      <stop
         id="stop5853"
         offset="0.5"
         style="stop-color:#c3c3ff;stop-opacity:0.39215687;" />
      <stop
         style="stop-color:#c2c2ff;stop-opacity:0.78431374;"
         offset="1"
         id="stop5849" />
    </linearGradient>
    <linearGradient
       inkscape:collect="always"
       xlink:href="#linearGradient5845"
       id="linearGradient5857"
       x1="328.35107"
       y1="479.57245"
       x2="138.74393"
       y2="291.41269"
       gradientUnits="userSpaceOnUse" />
    <linearGradient
       inkscape:collect="always"
       xlink:href="#linearGradient5845"
       id="linearGradient3782"
       gradientUnits="userSpaceOnUse"
       x1="328.35107"
       y1="479.57245"
       x2="138.74393"
       y2="291.41269"
       gradientTransform="translate(8.7890625e-6,4.5582031e-6)" />
    <linearGradient
       inkscape:collect="always"
       xlink:href="#linearGradient5234"
       id="linearGradient5242"
       x1="603.84967"
       y1="525.11273"
       x2="52.610882"
       y2="525.11273"
       gradientUnits="userSpaceOnUse"
       gradientTransform="translate(-1.2109375e-6,-4.6417969e-6)" />
    <linearGradient
       inkscape:collect="always"
       xlink:href="#linearGradient5234"
       id="linearGradient5617"
       gradientUnits="userSpaceOnUse"
       gradientTransform="translate(-1.2109375e-6,-4.6417969e-6)"
       x1="-1091.0355"
       y1="345.63727"
       x2="-753.5813"
       y2="420.90118" />
  </defs>
  <sodipodi:namedview
     id="base"
     pagecolor="#ffffff"
     bordercolor="#666666"
     borderopacity="1.0"
     inkscape:pageopacity="0.0"
     inkscape:pageshadow="2"
     inkscape:zoom="0.69090225"
     inkscape:cx="395.60476"
     inkscape:cy="576.41165"
     inkscape:document-units="px"
     inkscape:current-layer="layer1"
     showgrid="false"
     inkscape:window-width="1366"
     inkscape:window-height="706"
     inkscape:window-x="-8"
     inkscape:window-y="-8"
     inkscape:window-maximized="1" />
  <metadata
     id="metadata5314">
    <rdf:RDF>
      <cc:Work
         rdf:about="">
        <dc:format>image/svg+xml</dc:format>
        <dc:type
           rdf:resource="http://purl.org/dc/dcmitype/StillImage" />
        <dc:title />
      </cc:Work>
    </rdf:RDF>
  </metadata>
  <g
     inkscape:label="Capa 1"
     inkscape:groupmode="layer"
     id="layer1">
    <g
       id="g6024">
      <g
         id="g5993">
        <g
           id="g5963">
          <g
             id="g5934">
            <g
               id="g5906">
              <g
                 id="g5879">
                <g
                   id="g5853">
                  <g
                     id="g5828">
                    <g
                       id="g5804">
                      <g
                         id="g5781">
                        <g
                           id="g5759">
                          <g
                             id="g5738">
                            <g
                               id="g5718">
                              <g
                                 id="g5699">
                                <g
                                   id="g5681">
                                <g
                                   id="g5664">
                                <g
                                   id="g5648">
                                <g
                                   id="g5633">
                                <g
                                   id="g5619">
                                <path
                                   transform="translate(32.047241,102.39035)"
                                   d="m 645.71429,423.79074 a 305.71429,305.71429 0 1 1 -611.428584,0 305.71429,305.71429 0 1 1 611.428584,0 z"
                                   sodipodi:ry="305.71429"
                                   sodipodi:rx="305.71429"
                                   sodipodi:cy="423.79074"
                                   sodipodi:cx="340"
                                   id="path5317"
                                   style="fill:#0000ff;fill-opacity:1;fill-rule:evenodd;stroke:none"
                                   sodipodi:type="arc" />
                                <path
                                   sodipodi:nodetypes="ccsccsccc"
                                   inkscape:connector-curvature="0"
                                   id="path5319"
                                   d="m 80.691589,432.52053 c 107.106321,8.20183 239.951701,-7.88801 323.128201,24.24365 -2.36327,-1.29204 65.35988,54.40842 100.5931,68.75068 30.00352,12.21343 173.37289,9.35433 172.23854,10.13168 4.20206,-10.48046 0.2229,-45.88898 -5.78953,-75.98759 -7.48939,13.79077 -130.49213,6.10614 -144.73827,-2.17108 -3.46317,-2.01216 -89.02516,-55.10292 -91.90881,-57.89531 -55.10615,-32.27417 -213.24772,-25.08797 -319.87158,-37.63195 -22.539288,35.3245 -30.14458,54.26763 -33.651651,70.55992 z"
                                   style="fill:#00ffff;stroke:none" />
                                <path
                                   sodipodi:nodetypes="csccc"
                                   inkscape:connector-curvature="0"
                                   id="path5321"
                                   d="m 141.11982,325.05235 c 5.20435,-20.23914 318.23233,-27.7551 311.18729,18.81598 -4.08054,26.97427 164.16977,57.15103 164.27794,56.44792 18.22486,1.41479 34.1015,2.12511 33.2898,-2.17107 C 571.47935,219.72161 306.68223,140.33019 141.11982,325.05235 z"
                                   style="fill:#00ffff;stroke:none" />
                                <path
                                   sodipodi:nodetypes="cscccscc"
                                   inkscape:connector-curvature="0"
                                   id="path5323"
                                   d="m 107.10632,678.21374 c 2.75955,0 106.67876,24.62599 201.5221,20.51399 195.42209,-8.47267 150.9156,15.67058 150.9156,15.67058 46.67767,13.8104 56.2067,31.72181 78.15867,43.05964 -22.67566,-8.68429 -42.82537,-28.53312 -80.32974,-35.09903 -26.58325,-2.72334 52.55704,-27.55389 -150.15539,-15.65999 -48.97142,2.87333 -111.49239,-8.89438 -194.3217,-19.80089 -1.2029,-0.22821 -3.6378,-4.66072 -5.78954,-8.6843 z"
                                   style="fill:#00ffff;stroke:none" />
                                <path
                                   sodipodi:nodetypes="cccccccc"
                                   inkscape:connector-curvature="0"
                                   id="path5325"
                                   d="m 149.57418,735.02931 91.79645,6.21156 c 162.98045,-4.0776 61.8581,4.08798 92.78715,6.13197 35.89739,3.97562 51.27675,8.43881 68.64416,11.53205 -19.33177,-1.15133 -46.51828,-4.34358 -69.66761,-6.9265 -32.59614,-2.52619 -29.75829,-3.10496 -91.54969,-5.52455 l -86.53134,-5.22172 c -2.85835,-2.51793 -5.35353,-5.10743 -5.47912,-6.20281 z"
                                   style="fill:#00ffff;stroke:none" />
                                <path
                                   sodipodi:nodetypes="cccccccc"
                                   inkscape:connector-curvature="0"
                                   id="path5327"
                                   d="m 68.026989,558.08097 c 63.213361,-17.74135 130.046031,-28.00228 199.015121,-30.39503 36.9114,-0.93871 152.29006,59.48767 154.14627,54.27685 19.58145,11.7806 85.6542,-21.46371 127.36968,-32.56611 -42.21533,7.57909 -84.43066,26.36918 -126.64599,20.26336 -54.83068,-6.01559 -21.13229,-41.54256 -157.04103,-55.72424 -63.29753,4.19383 -128.52685,7.99081 -197.567742,27.50027 -0.859766,7.75029 -0.337632,12.73679 0.723691,16.6449 z"
                                   style="fill:#00ffff;stroke:none" />
                                <path
                                   sodipodi:nodetypes="cccccccc"
                                   inkscape:connector-curvature="0"
                                   id="path5329"
                                   d="m 80.329742,618.14736 c 77.169268,11.72519 151.076498,13.99046 209.146808,-29.67135 30.26823,-32.44439 143.77335,36.18457 215.66003,54.27686 59.10707,25.25392 98.96368,-36.53779 148.35673,-55.72424 -48.48732,22.91689 -72.19764,98.00387 -145.46197,68.75068 -72.36614,-19.0482 -186.84509,-89.96734 -217.10741,-57.17162 -59.25594,45.49573 -131.75876,41.31565 -206.252039,29.67135 z"
                                   style="fill:#000080;stroke:none;stroke-width:1px;stroke-linecap:butt;stroke-linejoin:miter;stroke-opacity:1" />
                                <path
                                   sodipodi:nodetypes="cccccc"
                                   inkscape:connector-curvature="0"
                                   id="path5331"
                                   d="M 67.303298,508.14627 269.93688,475.58016 c 77.4698,-12.00467 133.17981,27.39812 160.65949,41.25041 -32.80734,-15.67998 -51.96371,-67.14633 -160.65949,-55.00055 L 68.026989,490.77768 c -2.136178,8.63195 -2.446943,14.52578 -0.723691,17.36859 z"
                                   style="fill:#000080;stroke:none;stroke-width:1px;stroke-linecap:butt;stroke-linejoin:miter;stroke-opacity:1" />
                                <path
                                   sodipodi:nodetypes="ccccc"
                                   inkscape:connector-curvature="0"
                                   id="path5333"
                                   d="m 180.19915,288.86778 c 92.68014,-27.99889 177.39224,-41.76914 243.1603,-21.71074 54.21055,27.87298 87.80791,51.62332 131.71183,77.43498 44.9195,28.04506 79.9763,28.68488 62.96115,4.34215 C 495.9126,188.23653 290.91791,191.57167 180.19915,288.86778 z"
                                   style="fill:#000080;stroke:none" />
                                <path
                                   sodipodi:type="arc"
                                   style="fill:url(#linearGradient3782);fill-opacity:1;fill-rule:evenodd;stroke:none"
                                   id="path5335"
                                   sodipodi:cx="340"
                                   sodipodi:cy="423.79074"
                                   sodipodi:rx="305.71429"
                                   sodipodi:ry="305.71429"
                                   d="m 645.71429,423.79074 a 305.71429,305.71429 0 1 1 -611.428584,0 305.71429,305.71429 0 1 1 611.428584,0 z"
                                   transform="translate(32.047241,102.39035)" />
                                <path
                                   sodipodi:nodetypes="cssccssccscsscc"
                                   inkscape:connector-curvature="0"
                                   id="path3002"
                                   d="m 108.48614,423.96133 c 13.15051,-0.58185 199.53197,14.58744 137.18605,1.2524 -115.44865,-24.69308 -200.071324,-43.8893 90.03433,3.07191 35.76929,5.7902 65.19774,4.03042 75.72205,6.93368 38.59606,4.26671 98.6167,84.3127 101.32196,85.97015 5.3855,0.97014 10.79424,3.60528 15.74595,2.19697 135.30817,-38.48279 152.81333,-39.11356 62.58859,-0.0226 -18.30354,7.93023 40.27186,-0.6202 63.41387,4.47807 20.54026,8.93174 27.19217,-58.22564 1.53518,-52.70788 5.80226,5.80226 -121.87471,18.61415 -139.18977,-3.07037 -3.8744,-4.85211 -108.15091,-75.52381 -110.53305,-72.66524 -31.81673,-7.97883 -64.44062,-13.98727 -97.73155,-15.95171 -21.88911,-1.29164 230.53037,80.33708 -77.73604,-4.86593 -33.05749,-9.13689 -68.71673,-2.11615 -102.91194,-3.74526 -25.61393,14.63599 -23.27131,31.81348 -19.44563,49.1258 z"
                                   style="fill:#000080;stroke:none;stroke-width:1px;stroke-linecap:butt;stroke-linejoin:miter;stroke-opacity:1;opacity:0.21585903" />
                                <path
                                   sodipodi:type="arc"
                                   style="fill:url(#linearGradient5617);fill-opacity:1;fill-rule:evenodd;stroke:url(#pattern5244)"
                                   id="path3784"
                                   sodipodi:cx="340"
                                   sodipodi:cy="423.79074"
                                   sodipodi:rx="305.71429"
                                   sodipodi:ry="305.71429"
                                   d="m 645.71429,423.79074 a 305.71429,305.71429 0 1 1 -611.428584,0 305.71429,305.71429 0 1 1 611.428584,0 z"
                                   transform="translate(32.047241,102.39035)" />
                                </g>
                                </g>
                                </g>
                                </g>
                                </g>
                              </g>
                            </g>
                          </g>
                        </g>
                      </g>
                    </g>
                  </g>
                </g>
              </g>
            </g>
          </g>
        </g>
      </g>
    </g>
  </g>
</svg>
